<svg xmlns="http://www.w3.org/2000/svg" width="32" height="32" id="boat"><g color="#000" font-family="sans-serif" font-weight="400"><path style="line-height:normal;text-indent:0;text-align:start;text-decoration-line:none;text-decoration-style:solid;text-decoration-color:#000;text-transform:none;block-progression:tb;isolation:auto;mix-blend-mode:normal" fill="#f05542" d="M204.436 1069.19a.547.547 0 0 0-.17.034l-14.225 5.204a.547.547 0 0 0-.32.716l5.385 13.598a.547.547 0 1 0 1.017-.402l-5.178-13.076 12.961-4.742v17.384a.547.547 0 1 0 1.094 0v-18.169a.547.547 0 0 0-.564-.547z" overflow="visible" transform="translate(-171.358 -968.638) scale(.91394)"></path><path style="line-height:normal;text-indent:0;text-align:start;text-decoration-line:none;text-decoration-style:solid;text-decoration-color:#000;text-transform:none;block-progression:tb;isolation:auto;mix-blend-mode:normal" fill="#f05542" d="M204.442 1069.188a.547.547 0 0 0-.168 1.062l13.687 5.138-5.129 12.873a.548.548 0 0 0 1.018.406l5.336-13.39a.547.547 0 0 0-.316-.716l-14.212-5.334a.547.547 0 0 0-.216-.038z" overflow="visible" transform="translate(-171.358 -968.638) scale(.91394)"></path><path style="line-height:normal;text-indent:0;text-align:start;text-decoration-line:none;text-decoration-style:solid;text-decoration-color:#000;text-transform:none;block-progression:tb;isolation:auto;mix-blend-mode:normal" fill="#f05542" d="M196.794 1066.455a.547.547 0 0 0-.547.547v5.12a.547.547 0 1 0 1.094 0v-4.573H211.565v4.917a.547.547 0 1 0 1.094 0v-5.464a.547.547 0 0 0-.547-.547h-15.318z" overflow="visible" transform="translate(-171.358 -968.638) scale(.91394)"></path><path style="line-height:normal;text-indent:0;text-align:start;text-decoration-line:none;text-decoration-style:solid;text-decoration-color:#000;text-transform:none;block-progression:tb;isolation:auto;mix-blend-mode:normal" fill="#f05542" d="M200.076 1063.175a.547.547 0 0 0-.547.547v3.069a.547.547 0 1 0 1.095 0v-2.522h7.659v2.727a.547.547 0 1 0 1.094 0v-3.274a.547.547 0 0 0-.547-.547h-8.753z" overflow="visible" transform="translate(-171.358 -968.638) scale(.91394)"></path><path style="line-height:normal;text-indent:0;text-align:start;text-decoration-line:none;text-decoration-style:solid;text-decoration-color:#000;text-transform:none;block-progression:tb;isolation:auto;mix-blend-mode:normal" fill="#f05542" d="M203.359 1059.89a.547.547 0 0 0-.547.547v3.18a.547.547 0 0 0 .534.547l2.188.049a.547.547 0 0 0 .56-.547v-3.23a.547.547 0 0 0-.547-.546h-2.188zm.547 1.094H205v2.122l-1.094-.024v-2.098z" overflow="visible" transform="translate(-171.358 -968.638) scale(.91394)"></path><path style="line-height:normal;text-indent:0;text-align:start;text-decoration-line:none;text-decoration-style:solid;text-decoration-color:#000;text-transform:none;block-progression:tb;isolation:auto;mix-blend-mode:normal" fill="#2b4255" d="M199.014 1087.287a.547.547 0 0 0-.335.13 3.825 3.825 0 0 1-4.87.013.547.547 0 1 0-.693.846 4.93 4.93 0 0 0 6.262-.015.547.547 0 0 0-.364-.974z" overflow="visible" transform="translate(-171.358 -968.638) scale(.91394)"></path><path style="line-height:normal;text-indent:0;text-align:start;text-decoration-line:none;text-decoration-style:solid;text-decoration-color:#000;text-transform:none;block-progression:tb;isolation:auto;mix-blend-mode:normal" fill="#2b4255" d="M204.479 1087.287a.547.547 0 0 0-.336.13 3.825 3.825 0 0 1-4.87.013.547.547 0 1 0-.695.846 4.93 4.93 0 0 0 6.262-.015.547.547 0 0 0-.361-.974zm10.941 0a.547.547 0 0 0-.335.13 3.825 3.825 0 0 1-4.87.013.547.547 0 1 0-.695.846 4.93 4.93 0 0 0 6.262-.015.547.547 0 0 0-.362-.974z" overflow="visible" transform="translate(-171.358 -968.638) scale(.91394)"></path><path style="line-height:normal;text-indent:0;text-align:start;text-decoration-line:none;text-decoration-style:solid;text-decoration-color:#000;text-transform:none;block-progression:tb;isolation:auto;mix-blend-mode:normal" fill="#2b4255" d="M209.95 1087.287a.547.547 0 0 0-.336.13 3.825 3.825 0 0 1-4.87.013.547.547 0 1 0-.695.846 4.93 4.93 0 0 0 6.262-.015.547.547 0 0 0-.361-.974zm-10.936 2.188a.547.547 0 0 0-.335.13 3.825 3.825 0 0 1-4.87.013.547.547 0 1 0-.693.847 4.93 4.93 0 0 0 6.262-.015.547.547 0 0 0-.364-.975z" overflow="visible" transform="translate(-171.358 -968.638) scale(.91394)"></path><path style="line-height:normal;text-indent:0;text-align:start;text-decoration-line:none;text-decoration-style:solid;text-decoration-color:#000;text-transform:none;block-progression:tb;isolation:auto;mix-blend-mode:normal" fill="#2b4255" d="M204.479 1089.475a.547.547 0 0 0-.336.13 3.825 3.825 0 0 1-4.87.013.547.547 0 1 0-.695.847 4.93 4.93 0 0 0 6.262-.015.547.547 0 0 0-.361-.975zm10.941 0a.547.547 0 0 0-.335.13 3.825 3.825 0 0 1-4.87.013.547.547 0 1 0-.695.847 4.93 4.93 0 0 0 6.262-.015.547.547 0 0 0-.362-.975z" overflow="visible" transform="translate(-171.358 -968.638) scale(.91394)"></path><path style="line-height:normal;text-indent:0;text-align:start;text-decoration-line:none;text-decoration-style:solid;text-decoration-color:#000;text-transform:none;block-progression:tb;isolation:auto;mix-blend-mode:normal" fill="#2b4255" d="M209.95 1089.475a.547.547 0 0 0-.336.13 3.825 3.825 0 0 1-4.87.013.547.547 0 1 0-.695.847 4.93 4.93 0 0 0 6.262-.015.547.547 0 0 0-.361-.975zm-10.936 2.188a.547.547 0 0 0-.335.13 3.825 3.825 0 0 1-4.87.014.547.547 0 1 0-.693.846 4.93 4.93 0 0 0 6.262-.015.547.547 0 0 0-.364-.974z" overflow="visible" transform="translate(-171.358 -968.638) scale(.91394)"></path><path style="line-height:normal;text-indent:0;text-align:start;text-decoration-line:none;text-decoration-style:solid;text-decoration-color:#000;text-transform:none;block-progression:tb;isolation:auto;mix-blend-mode:normal" fill="#2b4255" d="M204.479 1091.663a.547.547 0 0 0-.336.13 3.825 3.825 0 0 1-4.87.014.547.547 0 1 0-.695.846 4.93 4.93 0 0 0 6.262-.015.547.547 0 0 0-.361-.974zm10.941 0a.547.547 0 0 0-.335.13 3.825 3.825 0 0 1-4.87.014.547.547 0 1 0-.695.846 4.93 4.93 0 0 0 6.262-.015.547.547 0 0 0-.362-.974z" overflow="visible" transform="translate(-171.358 -968.638) scale(.91394)"></path><path style="line-height:normal;text-indent:0;text-align:start;text-decoration-line:none;text-decoration-style:solid;text-decoration-color:#000;text-transform:none;block-progression:tb;isolation:auto;mix-blend-mode:normal" fill="#2b4255" d="M209.95 1091.663a.547.547 0 0 0-.336.13 3.825 3.825 0 0 1-4.87.014.547.547 0 1 0-.695.846 4.93 4.93 0 0 0 6.262-.015.547.547 0 0 0-.361-.974z" overflow="visible" transform="translate(-171.358 -968.638) scale(.91394)"></path></g></svg>